<?xml version="1.0" encoding="utf-8"?>
<!-- Generator: Adobe Illustrator 24.0.2, SVG Export Plug-In . SVG Version: 6.00 Build 0)  -->
<svg version="1.1" xmlns="http://www.w3.org/2000/svg" xmlns:xlink="http://www.w3.org/1999/xlink" x="0px" y="0px"
	 viewBox="0 0 638.7 530.7" style="enable-background:new 0 0 638.7 530.7;" xml:space="preserve">
<style type="text/css">
	.st0{fill:none;stroke:#FFFFFF;stroke-width:15;stroke-linejoin:round;stroke-miterlimit:10;}
	.st1{fill:#0066B3;}
	.st2{fill:#FFFFFF;}
	.st3{fill:#ED1C24;}
</style>
<g id="layer_copy">
	<path class="st0" d="M631.2,31.6c-1.2,2.3-2.4,4.6-3.6,6.8c1.2-2.3,2.3-4.5,3.5-6.8c-27.7,38.6-67.6,71.1-115,99.3
		C470.4,57.3,388.8,7.6,296.9,7.5c-142.4,0-257.8,117-257.8,257.9c0,18.8,2,37.2,5.9,54.9c-13.5,6.9-26,14.1-37.5,21.6c0,0,0,0,6,3
		c10.3-6.2,21.4-11.9,33.2-17.2c11.8,47.6,36.8,90,71,123c-13.1,11.8-25.8,24-38.2,36.6c0,0,0,0-1.5,9c14.6-14,29.7-27.4,45.2-40.4
		c45.8,41.8,106.8,67.3,173.7,67.3c140.9,0,257.8-115.4,257.8-257.8c0-35.4-7.4-69.2-20.6-100.1C580.6,124.5,615.5,81.2,631.2,31.6z
		 M529.1,154.4c2-1.5,4-3.1,5.9-4.6c-1.9,1.7-3.8,3.3-5.7,5C529.2,154.7,529.1,154.5,529.1,154.4z"/>
</g>
<g id="layer">
	<g>
		<g>
			<path class="st1" d="M554.7,265.4c0,142.4-116.9,257.8-257.8,257.8c-142.4,0-257.8-115.4-257.8-257.8
				C39.1,124.5,154.5,7.5,296.9,7.5C437.8,7.6,554.7,124.5,554.7,265.4z"/>
			<path class="st2" d="M299.8,31.6c0,1.5-1.5,1.5-1.5,1.5c-1.5,0-3,0-3-1.5s1.5-1.5,3-1.5C298.4,30.1,299.8,30.1,299.8,31.6z"/>
			<path class="st2" d="M314.8,63.1c0,1.5-1.5,3-3,3s-3-1.5-3-3s1.5-3,3-3S314.8,61.6,314.8,63.1z"/>
			<path class="st2" d="M352.3,115.5c0,1.5-1.5,3-3,3s-3-1.5-3-3s1.5-3,3-3S352.3,114,352.3,115.5z"/>
			<path class="st2" d="M290.9,81.1c0,1.5,0,3-1.5,3s-1.5-1.5-1.5-3s0-1.5,1.5-1.5S290.9,79.6,290.9,81.1z"/>
			<path class="st2" d="M313.3,93c0,1.5,0,3-1.5,3s-1.5-1.5-1.5-3s0-1.5,1.5-1.5S313.3,91.5,313.3,93z"/>
			<path class="st2" d="M284.9,60.1c0,1.5-1.5,3-3,3s-3-1.5-3-3s1.5-3,3-3S284.9,58.6,284.9,60.1z"/>
			<path class="st2" d="M250.4,81.1l-1.5,1.5c-1.5,0-3-1.5-3-1.5c0-1.5,1.5-3,3-3C248.9,78.1,250.4,79.6,250.4,81.1z"/>
			<path class="st2" d="M256.4,85.5l-1.5,1.5c-1.5,0-3-1.5-3-1.5c0-1.5,1.5-3,3-3C254.9,82.6,256.4,84,256.4,85.5z"/>
			<path class="st2" d="M262.4,88.5c0,1.5,0,3-1.5,3s-3-1.5-3-3c0,0,1.5-1.5,3-1.5S262.4,88.5,262.4,88.5z"/>
			<path class="st2" d="M253.4,97.5c0,0-1.5,1.5-3,1.5l-1.5-1.5c0-1.5,1.5-3,1.5-3C251.9,94.5,253.4,96,253.4,97.5z"/>
			<path class="st2" d="M203.9,132c0,0,0,1.5-1.5,1.5s-1.5-1.5-1.5-1.5c0-1.5,0-3,1.5-3S203.9,130.5,203.9,132z"/>
			<path class="st2" d="M212.9,142.5c0,1.5,0,1.5-1.5,1.5s-1.5,0-1.5-1.5s0-3,1.5-3S212.9,141,212.9,142.5z"/>
			<path class="st2" d="M206.9,319.4c0,1.5-1.5,3-3,3s-1.5-1.5-1.5-3s0-1.5,1.5-1.5S206.9,317.9,206.9,319.4z"/>
			<path class="st2" d="M208.4,368.9c0,1.5-1.5,3-3,3s-3-1.5-3-3s1.5-3,3-3S208.4,367.4,208.4,368.9z"/>
			<path class="st2" d="M179.9,394.4l-1.5,1.5c-1.5,0-3-1.5-3-1.5c0-1.5,1.5-3,3-3C178.4,391.4,179.9,392.9,179.9,394.4z"/>
			<path class="st2" d="M146.9,403.4c0,1.5-1.5,3-3,3s-3-1.5-3-3s1.5-1.5,3-1.5S146.9,401.9,146.9,403.4z"/>
			<path class="st2" d="M139.4,380.9c0,1.5-1.5,3-1.5,3c-1.5,0-3-1.5-3-3s1.5-1.5,3-1.5C137.9,379.4,139.4,379.4,139.4,380.9z"/>
			<path class="st2" d="M136.5,395.9c0,1.5-1.5,1.5-3,1.5s-1.5,0-1.5-1.5s0-3,1.5-3S136.5,394.4,136.5,395.9z"/>
			<path class="st2" d="M111,383.9c0,1.5-1.5,1.5-1.5,1.5c-1.5,0-3,0-3-1.5s1.5-3,3-3C109.5,380.9,111,382.4,111,383.9z"/>
			<path class="st2" d="M197.9,424.3c0,1.5-1.5,1.5-1.5,1.5c-1.5,0-3,0-3-1.5s1.5-3,3-3C196.4,421.3,197.9,422.8,197.9,424.3z"/>
			<path class="st2" d="M223.4,404.9c0,1.5,0,3-1.5,3s-3-1.5-3-3s1.5-3,3-3S223.4,403.4,223.4,404.9z"/>
			<path class="st2" d="M226.4,428.8c0,1.5,0,3-1.5,3s-1.5-1.5-1.5-3c0,0,0-1.5,1.5-1.5S226.4,428.8,226.4,428.8z"/>
			<path class="st2" d="M334.3,406.4c0,1.5,0,1.5-1.5,1.5s-3,0-3-1.5s1.5-3,3-3S334.3,404.9,334.3,406.4z"/>
			<path class="st2" d="M284.9,424.3c0,0-1.5,1.5-3,1.5l-1.5-1.5c0-1.5,1.5-3,1.5-3C283.4,421.3,284.9,422.8,284.9,424.3z"/>
			<path class="st2" d="M419.8,449.8c0,0-1.5,1.5-3,1.5l-1.5-1.5c0-1.5,1.5-3,1.5-3C418.3,446.8,419.8,448.3,419.8,449.8z"/>
			<path class="st2" d="M430.3,349.4c0,1.5-1.5,3-3,3s-1.5-1.5-1.5-3s0-1.5,1.5-1.5S430.3,347.9,430.3,349.4z"/>
			<path class="st2" d="M409.3,364.4c0,1.5,0,1.5-1.5,1.5s-3,0-3-1.5s1.5-3,3-3S409.3,362.9,409.3,364.4z"/>
			<path class="st2" d="M430.3,367.4c0,1.5-1.5,3-3,3s-3-1.5-3-3s1.5-1.5,3-1.5S430.3,365.9,430.3,367.4z"/>
			<path class="st2" d="M409.3,392.9c0,1.5,0,3-1.5,3s-3-1.5-3-3s1.5-1.5,3-1.5S409.3,391.4,409.3,392.9z"/>
			<path class="st2" d="M461.7,335.9c0,1.5,0,1.5-1.5,1.5s-1.5,0-1.5-1.5s0-1.5,1.5-1.5S461.7,334.4,461.7,335.9z"/>
			<path class="st2" d="M467.7,347.9c0,1.5-1.5,3-3,3s-3-1.5-3-3c0,0,1.5-1.5,3-1.5S467.7,347.9,467.7,347.9z"/>
			<path class="st2" d="M503.7,364.4c0,1.5-1.5,1.5-3,1.5s-3,0-3-1.5s1.5-3,3-3S503.7,362.9,503.7,364.4z"/>
			<path class="st2" d="M466.2,391.4c0,0,0,1.5-1.5,1.5s-1.5-1.5-1.5-1.5c0-1.5,0-3,1.5-3S466.2,389.9,466.2,391.4z"/>
			<path class="st2" d="M490.2,368.9c0,1.5-1.5,1.5-3,1.5c0,0-1.5,0-1.5-1.5s1.5-1.5,1.5-1.5C488.7,367.4,490.2,367.4,490.2,368.9z"
				/>
			<path class="st2" d="M485.7,403.4l-1.5,1.5c-1.5,0-3-1.5-3-1.5c0-1.5,1.5-3,3-3C484.2,400.4,485.7,401.9,485.7,403.4z"/>
			<path class="st2" d="M344.8,57.1c0-1.5,1.5-1.5,3-3c0-4.5,0-4.5,0-4.5c1.5,4.5,1.5,4.5,1.5,4.5c1.5,1.5,3,1.5,3,3
				c6,1.5,6,1.5,6,1.5c-6,1.5-6,1.5-6,1.5s-1.5,1.5-3,1.5c-1.5,6-1.5,6-1.5,6c0-6,0-6,0-6c-1.5,0-3-1.5-3-3c-4.5,0-4.5,0-4.5,0
				C344.8,57.1,344.8,57.1,344.8,57.1z"/>
			<path class="st2" d="M199.4,454.3c1.5-1.5,1.5-3,3-3c1.5-6,1.5-6,1.5-6c1.5,6,1.5,6,1.5,6s1.5,1.5,1.5,3c6,0,6,0,6,0
				c-6,1.5-6,1.5-6,1.5c0,1.5-1.5,1.5-3,3c0,4.5,0,4.5,0,4.5c-1.5-4.5-1.5-4.5-1.5-4.5c-1.5-1.5-1.5-1.5-3-3
				c-4.5-1.5-4.5-1.5-4.5-1.5C199.4,454.3,199.4,454.3,199.4,454.3z"/>
			<path class="st2" d="M466.2,401.9c0,0,1.5-1.5,3-1.5c1.5-6,1.5-6,1.5-6c0,6,0,6,0,6c1.5,0,3,1.5,3,3c6,0,6,0,6,0
				c-6,1.5-6,1.5-6,1.5c0,1.5-1.5,1.5-3,3c0,4.5,0,4.5,0,4.5c-1.5-6-1.5-6-1.5-6c-1.5,0-3,0-3-1.5c-4.5-1.5-4.5-1.5-4.5-1.5
				C466.2,401.9,466.2,401.9,466.2,401.9z"/>
			<path class="st2" d="M487.2,344.9c1.5,0,1.5-1.5,3-1.5c1.5-6,1.5-6,1.5-6c0,6,0,6,0,6c1.5,0,3,1.5,3,3c6,0,6,0,6,0
				c-6,1.5-6,1.5-6,1.5c0,1.5-1.5,1.5-3,3c0,4.5,0,4.5,0,4.5c-1.5-6-1.5-6-1.5-6c-1.5,0-3,0-3-1.5c-4.5-1.5-4.5-1.5-4.5-1.5
				C487.2,344.9,487.2,344.9,487.2,344.9z"/>
			<path class="st2" d="M226.4,135c0-1.5,1.5-1.5,3-3c0-4.5,0-4.5,0-4.5c1.5,4.5,1.5,4.5,1.5,4.5c1.5,1.5,1.5,1.5,3,3
				c4.5,1.5,4.5,1.5,4.5,1.5c-6,0-6,0-6,0c0,1.5,0,3-1.5,3c-1.5,6-1.5,6-1.5,6c-1.5-6-1.5-6-1.5-6s-1.5-1.5-1.5-3c-6,0-6,0-6,0
				C226.4,135,226.4,135,226.4,135z"/>
			<path class="st2" d="M208.4,255c19.5,33,42,58.5,60,81c15,21,46.5,31.5,36,40.5c-12,10.5-42-37.5-42-37.5
				c-19.5-24-39-49.5-58.5-82.5C208.4,255,208.4,255,208.4,255z"/>
			<path class="st3" d="M7.5,341.9c91.4-60,253.3-98.9,385.3-151.4c100.4-40.5,188.9-90,238.3-158.9
				C508.2,278.9,169.4,250.4,13.5,344.9C7.5,341.9,7.5,341.9,7.5,341.9z"/>
			<path class="st2" d="M221.9,219h45l34.5,84l10.5,10.5h-60l10.5-10.5l-3-10.5h-34.5l-3,12l7.5,9h-30l10.5-10.5l21-73.4L221.9,219z
				 M253.4,277.4l-13.5-33l-10.5,33H253.4z"/>
			<path class="st2" d="M436.3,219h46.5l34.5,84l10.5,10.5h-60l10.5-10.5l-3-10.5h-34.5l-3,12l7.5,9h-30l10.5-10.5l21-73.4
				L436.3,219z M469.2,277.4l-13.5-33l-10.5,33H469.2z"/>
			<path class="st2" d="M158.9,277.4c0-3,0-48,0-48c-9-10.5-9-10.5-9-10.5c31.5,0,31.5,0,31.5,0c-9,10.5-9,10.5-9,10.5
				c0,73.4,0,73.4,0,73.4c10.5,10.5,10.5,10.5,10.5,10.5c-42,0-42,0-42,0c-36-61.5-36-61.5-36-61.5c0,3,0,51,0,51
				c9,10.5,9,10.5,9,10.5c-33,0-33,0-33,0c10.5-10.5,10.5-10.5,10.5-10.5c0-73.4,0-73.4,0-73.4c-9-10.5-9-10.5-9-10.5
				c42,0,42,0,42,0C158.9,277.4,158.9,277.4,158.9,277.4z"/>
			<path class="st2" d="M400.3,243c-1.5-28.5-1.5-28.5-1.5-28.5c-9,6-9,6-9,6c-13.5-4.5-30-4.5-42,1.5c-10.5,4.5-22.5,15-21,30
				s13.5,21,24,25.5c13.5,6,28.5,9,28.5,16.5c0,6-9,9-15,9s-27-1.5-37.5-13.5c3,30,3,30,3,30c10.5-7.5,10.5-7.5,10.5-7.5
				c13.5,4.5,30,6,45,1.5s30-16.5,21-39c-3-9-13.5-15-19.5-18c-6-1.5-22.5-9-27-10.5c-6-3-6-13.5,7.5-15
				C379.3,229.5,397.3,240,400.3,243z"/>
			<path class="st3" d="M79.5,487.3C263.9,298.4,539.7,211.5,631.2,31.6C575.7,207,280.4,302.9,78,496.3
				C79.5,487.3,79.5,487.3,79.5,487.3z"/>
			<path class="st2" d="M203.9,256.5c-1.5-3-4.5-7.5-6-10.5c-49.5-89.9-42-179.9,46.5-140.9c76.4,34.5,148.4,127.4,176.9,194.9
				c13.5,30,49.5,151.4-66,101.9l0,0c109.4,45,90-69,31.5-157.4c-33-49.5-76.4-91.5-103.4-110.9c-91.5-66-146.9-25.5-84,104.9
				c3,6,6,10.5,9,16.5C203.9,256.5,203.9,256.5,203.9,256.5z"/>
		</g>
	</g>
</g>
</svg>
